<svg width="47" height="47" viewBox="0 0 47 47" fill="none" xmlns="http://www.w3.org/2000/svg">
<path fill-rule="evenodd" clip-rule="evenodd" d="M40.3315 28.9242V13.4375C40.3315 9.46795 37.1136 6.25 33.144 6.25H16.354C12.3845 6.25 9.1665 9.46795 9.1665 13.4375V33.6392C9.1665 37.0371 11.9211 39.7917 15.319 39.7917H38.894C39.6879 39.7917 40.3315 39.1481 40.3315 38.3542C40.3315 37.5603 39.6879 36.9167 38.894 36.9167H15.319C13.5089 36.9167 12.0415 35.4493 12.0415 33.6392C12.0415 31.8291 13.5089 30.3617 15.319 30.3617H38.894C39.6879 30.3617 40.3315 29.7181 40.3315 28.9242ZM12.0415 28.445V13.4375C12.0415 11.0558 13.9723 9.125 16.354 9.125H33.144C35.5257 9.125 37.4565 11.0558 37.4565 13.4375V27.4867H15.319C14.1578 27.4894 13.0213 27.8217 12.0415 28.445Z" fill="white"/>
<path d="M13.8815 33.6392C13.8815 32.8453 14.5251 32.2017 15.319 32.2017H36.5365C37.3304 32.2017 37.974 32.8453 37.974 33.6392C37.974 34.4331 37.3304 35.0767 36.5365 35.0767H15.319C14.5251 35.0767 13.8815 34.4331 13.8815 33.6392Z" fill="white"/>
</svg>
