<svg width="432" height="297" viewBox="0 0 432 297" fill="none" xmlns="http://www.w3.org/2000/svg">
<path d="M179.877 297H36.8708C36.1687 297 35.4957 296.72 34.9993 296.224C34.5029 295.727 34.2236 295.054 34.2227 294.352V172.062C34.2236 171.36 34.5029 170.687 34.9993 170.191C35.4957 169.694 36.1687 169.415 36.8708 169.414H179.877C180.579 169.415 181.252 169.694 181.749 170.191C182.245 170.687 182.524 171.36 182.525 172.062V294.352C182.524 295.054 182.245 295.727 181.749 296.223C181.252 296.72 180.579 296.999 179.877 297V297ZM36.8708 170.471C36.45 170.472 36.0468 170.64 35.7493 170.937C35.4517 171.235 35.2842 171.638 35.2833 172.059V294.352C35.2842 294.773 35.4517 295.176 35.7493 295.473C36.0468 295.771 36.45 295.938 36.8708 295.939H179.877C180.298 295.938 180.701 295.771 180.999 295.473C181.296 295.176 181.464 294.773 181.465 294.352V172.062C181.464 171.641 181.296 171.238 180.999 170.941C180.701 170.643 180.298 170.476 179.877 170.475L36.8708 170.471Z" fill="#E6E6E6"/>
<path d="M59.0922 286.041C65.0499 286.041 69.8796 281.212 69.8796 275.254C69.8796 269.296 65.0499 264.466 59.0922 264.466C53.1344 264.466 48.3047 269.296 48.3047 275.254C48.3047 281.212 53.1344 286.041 59.0922 286.041Z" fill="#E6E6E6"/>
<path d="M84.0048 268.062C83.528 268.062 83.0707 268.251 82.7336 268.589C82.3964 268.926 82.207 269.383 82.207 269.86C82.207 270.337 82.3964 270.794 82.7336 271.131C83.0707 271.468 83.528 271.658 84.0048 271.658H168.765C169.242 271.658 169.699 271.468 170.036 271.131C170.373 270.794 170.563 270.337 170.563 269.86C170.563 269.383 170.373 268.926 170.036 268.589C169.699 268.251 169.242 268.062 168.765 268.062H84.0048Z" fill="#E6E6E6"/>
<path d="M84.0048 278.85C83.528 278.85 83.0707 279.039 82.7336 279.376C82.3964 279.713 82.207 280.171 82.207 280.647C82.207 281.124 82.3964 281.582 82.7336 281.919C83.0707 282.256 83.528 282.445 84.0048 282.445H120.477C120.954 282.445 121.411 282.256 121.749 281.919C122.086 281.582 122.275 281.124 122.275 280.647C122.275 280.171 122.086 279.713 121.749 279.376C121.411 279.039 120.954 278.85 120.477 278.85H84.0048Z" fill="#E6E6E6"/>
<path d="M213.854 254.348H70.8474C70.1453 254.347 69.4722 254.068 68.9757 253.571C68.4793 253.075 68.2 252.402 68.1992 251.699V188.941C68.2 188.239 68.4793 187.565 68.9757 187.069C69.4722 186.573 70.1453 186.293 70.8474 186.292H213.854C214.556 186.293 215.229 186.573 215.726 187.069C216.222 187.565 216.501 188.239 216.502 188.941V251.699C216.501 252.402 216.222 253.075 215.726 253.571C215.229 254.068 214.556 254.347 213.854 254.348Z" fill="white"/>
<path d="M99.9697 208.167C99.4929 208.167 99.0356 208.356 98.6985 208.693C98.3613 209.03 98.1719 209.488 98.1719 209.964C98.1719 210.441 98.3613 210.898 98.6985 211.236C99.0356 211.573 99.4929 211.762 99.9697 211.762H184.73C185.207 211.762 185.664 211.573 186.001 211.236C186.339 210.898 186.528 210.441 186.528 209.964C186.528 209.488 186.339 209.03 186.001 208.693C185.664 208.356 185.207 208.167 184.73 208.167H99.9697Z" fill="white"/>
<path d="M99.9697 218.584C99.4929 218.584 99.0356 218.774 98.6985 219.111C98.3613 219.448 98.1719 219.905 98.1719 220.382C98.1719 220.859 98.3613 221.316 98.6985 221.654C99.0356 221.991 99.4929 222.18 99.9697 222.18H184.73C185.207 222.18 185.664 221.991 186.001 221.654C186.339 221.316 186.528 220.859 186.528 220.382C186.528 219.905 186.339 219.448 186.001 219.111C185.664 218.774 185.207 218.584 184.73 218.584H99.9697Z" fill="white"/>
<path d="M99.9697 228.876C99.4929 228.876 99.0356 229.066 98.6985 229.403C98.3613 229.74 98.1719 230.197 98.1719 230.674C98.1719 231.151 98.3613 231.608 98.6985 231.946C99.0356 232.283 99.4929 232.472 99.9697 232.472H136.442C136.919 232.472 137.376 232.283 137.714 231.946C138.051 231.608 138.24 231.151 138.24 230.674C138.24 230.197 138.051 229.74 137.714 229.403C137.376 229.066 136.919 228.876 136.442 228.876H99.9697Z" fill="white"/>
<path d="M431.797 295.798H0V296.79H431.797V295.798Z" fill="#3F3D56"/>
<path d="M374.838 295.798H231.832C231.13 295.798 230.457 295.518 229.96 295.022C229.464 294.525 229.185 293.852 229.184 293.15V257.676C229.185 256.974 229.464 256.301 229.96 255.804C230.457 255.308 231.13 255.029 231.832 255.028H374.838C375.54 255.029 376.213 255.308 376.71 255.804C377.206 256.301 377.485 256.974 377.486 257.676V293.15C377.485 293.852 377.206 294.525 376.71 295.022C376.213 295.518 375.54 295.798 374.838 295.798ZM231.832 256.085C231.411 256.086 231.008 256.253 230.71 256.551C230.413 256.848 230.245 257.252 230.244 257.672V293.146C230.245 293.567 230.413 293.97 230.71 294.268C231.008 294.565 231.411 294.733 231.832 294.734H374.838C375.259 294.733 375.662 294.566 375.96 294.268C376.257 293.97 376.425 293.567 376.426 293.146V257.676C376.425 257.255 376.257 256.852 375.96 256.554C375.662 256.257 375.259 256.089 374.838 256.088L231.832 256.085Z" fill="#E6E6E6"/>
<path d="M254.053 284.839C260.011 284.839 264.841 280.009 264.841 274.052C264.841 268.094 260.011 263.264 254.053 263.264C248.095 263.264 243.266 268.094 243.266 274.052C243.266 280.009 248.095 284.839 254.053 284.839Z" fill="#E6E6E6"/>
<path d="M278.966 266.86C278.489 266.86 278.032 267.049 277.695 267.386C277.357 267.724 277.168 268.181 277.168 268.658C277.168 269.135 277.357 269.592 277.695 269.929C278.032 270.266 278.489 270.456 278.966 270.456H363.726C364.203 270.456 364.66 270.266 364.997 269.929C365.334 269.592 365.524 269.135 365.524 268.658C365.524 268.181 365.334 267.724 364.997 267.386C364.66 267.049 364.203 266.86 363.726 266.86H278.966Z" fill="#E6E6E6"/>
<path d="M278.966 277.648C278.489 277.648 278.032 277.837 277.695 278.175C277.357 278.512 277.168 278.969 277.168 279.446C277.168 279.923 277.357 280.38 277.695 280.717C278.032 281.054 278.489 281.244 278.966 281.244H315.438C315.915 281.244 316.372 281.054 316.71 280.717C317.047 280.38 317.236 279.923 317.236 279.446C317.236 278.969 317.047 278.512 316.71 278.175C316.372 277.837 315.915 277.648 315.438 277.648H278.966Z" fill="#E6E6E6"/>
<path d="M349.699 254.195L218.991 195.991C218.35 195.704 217.848 195.175 217.596 194.52C217.345 193.864 217.363 193.135 217.648 192.493L232.086 160.069C232.373 159.428 232.902 158.926 233.558 158.675C234.214 158.423 234.942 158.442 235.584 158.727L366.292 216.93C366.933 217.217 367.435 217.746 367.687 218.402C367.938 219.058 367.92 219.786 367.635 220.428L353.197 252.852C352.91 253.493 352.381 253.994 351.725 254.246C351.07 254.498 350.341 254.48 349.699 254.195ZM235.154 159.693C234.769 159.523 234.332 159.512 233.939 159.662C233.546 159.813 233.229 160.114 233.057 160.498L218.619 192.921C218.449 193.306 218.438 193.743 218.589 194.136C218.74 194.529 219.04 194.846 219.424 195.018L350.132 253.222C350.517 253.392 350.954 253.403 351.347 253.252C351.74 253.101 352.057 252.801 352.229 252.417L366.665 219.997C366.836 219.612 366.847 219.175 366.696 218.782C366.545 218.389 366.245 218.072 365.861 217.9L235.154 159.693Z" fill="#E6E6E6"/>
<path d="M243.758 195.018C249.204 197.443 255.584 194.994 258.009 189.548C260.433 184.103 257.985 177.723 252.539 175.298C247.094 172.873 240.714 175.322 238.289 180.767C235.864 186.213 238.313 192.593 243.758 195.018Z" fill="#E6E6E6"/>
<path d="M273.85 188.725C273.414 188.531 272.919 188.518 272.474 188.689C272.029 188.86 271.669 189.201 271.475 189.636C271.281 190.072 271.268 190.567 271.439 191.013C271.61 191.458 271.951 191.817 272.387 192.011L349.857 226.509C350.293 226.703 350.788 226.716 351.234 226.545C351.679 226.374 352.038 226.033 352.232 225.597C352.426 225.161 352.439 224.666 352.268 224.221C352.097 223.775 351.757 223.416 351.321 223.222L273.85 188.725Z" fill="#E6E6E6"/>
<path d="M269.46 198.585C269.024 198.391 268.529 198.378 268.083 198.549C267.638 198.72 267.279 199.061 267.085 199.497C266.891 199.933 266.878 200.428 267.049 200.873C267.22 201.318 267.56 201.678 267.996 201.872L301.332 216.716C301.768 216.91 302.263 216.923 302.708 216.752C303.154 216.581 303.513 216.24 303.707 215.804C303.901 215.369 303.914 214.874 303.743 214.428C303.572 213.983 303.231 213.624 302.795 213.43L269.46 198.585Z" fill="#E6E6E6"/>
<path d="M242.271 155.623L99.8369 168.064C99.1376 168.124 98.443 167.905 97.9053 167.453C97.3677 167.002 97.031 166.356 96.969 165.657L93.8827 130.325C93.8226 129.625 94.0422 128.931 94.4934 128.393C94.9447 127.855 95.5907 127.519 96.2899 127.457L238.724 115.015C239.423 114.955 240.118 115.175 240.656 115.626C241.193 116.077 241.53 116.723 241.592 117.422L244.678 152.754C244.739 153.454 244.519 154.148 244.068 154.686C243.617 155.224 242.97 155.561 242.271 155.623ZM96.3819 128.51C95.9629 128.547 95.5758 128.749 95.3054 129.071C95.0349 129.393 94.9031 129.81 94.9388 130.229L98.0251 165.561C98.0626 165.98 98.2645 166.367 98.5867 166.637C98.9089 166.908 99.3252 167.04 99.7443 167.004L242.179 154.562C242.598 154.525 242.985 154.323 243.255 154.001C243.526 153.678 243.657 153.262 243.622 152.843L240.536 117.514C240.498 117.095 240.296 116.708 239.974 116.438C239.652 116.167 239.236 116.036 238.816 116.071L96.3819 128.51Z" fill="#E6E6E6"/>
<path d="M121.016 155.216C126.95 154.697 131.34 149.467 130.822 143.533C130.303 137.599 125.073 133.209 119.139 133.727C113.205 134.245 108.815 139.476 109.333 145.41C109.851 151.344 115.082 155.734 121.016 155.216Z" fill="#E6E6E6"/>
<path d="M144.267 135.14C143.792 135.182 143.353 135.41 143.047 135.776C142.74 136.141 142.591 136.613 142.633 137.088C142.674 137.562 142.903 138.001 143.268 138.308C143.633 138.614 144.105 138.763 144.58 138.722L229.001 131.348C229.476 131.306 229.915 131.078 230.221 130.713C230.528 130.347 230.677 129.875 230.635 129.401C230.594 128.926 230.365 128.487 230 128.18C229.635 127.874 229.163 127.725 228.688 127.766L144.267 135.14Z" fill="#E6E6E6"/>
<path d="M145.205 145.886C144.73 145.927 144.291 146.156 143.984 146.521C143.678 146.886 143.529 147.358 143.57 147.833C143.612 148.308 143.84 148.746 144.206 149.053C144.571 149.359 145.043 149.508 145.518 149.467L181.844 146.294C182.319 146.252 182.758 146.024 183.065 145.659C183.371 145.294 183.52 144.822 183.478 144.347C183.437 143.872 183.208 143.433 182.843 143.126C182.478 142.82 182.006 142.671 181.531 142.712L145.205 145.886Z" fill="#E6E6E6"/>
<path d="M215.285 41.2805C224.326 41.2805 231.656 33.951 231.656 24.9095C231.656 15.8681 224.326 8.53857 215.285 8.53857C206.244 8.53857 198.914 15.8681 198.914 24.9095C198.914 33.951 206.244 41.2805 215.285 41.2805Z" fill="#2F2E41"/>
<path d="M215.618 42.7268C222.347 42.7268 227.803 37.2717 227.803 30.5424C227.803 23.8131 222.347 18.3579 215.618 18.3579C208.889 18.3579 203.434 23.8131 203.434 30.5424C203.434 37.2717 208.889 42.7268 215.618 42.7268Z" fill="white"/>
<path d="M234.136 48.2256C234.136 48.2256 211.812 44.2569 197.426 49.2178L201.643 82.7038L200.65 88.1608L230.416 87.1686L228.431 81.7117L234.136 48.2256Z" fill="white"/>
<path d="M218.623 84.362C213.484 84.3008 208.351 83.9756 203.244 83.3877C202.196 83.2724 201.228 82.7678 200.534 81.9736C199.839 81.1795 199.468 80.1537 199.493 79.099L199.856 63.439L199.898 63.378C204.211 57.1307 202.11 52.5677 200.493 50.111C200.152 49.5922 199.971 48.9847 199.971 48.3638C199.723 48.0165 199.668 48.5647 199.822 48.1758C199.899 47.9828 200.022 47.8119 200.181 47.6787C200.34 47.5454 200.53 47.454 200.733 47.4128L203.196 46.9207C203.491 46.8617 203.798 46.9122 204.059 47.063C204.32 47.2137 204.517 47.4543 204.614 47.7397C205.441 50.2088 208.666 58.1531 216.056 58.1512C222.23 58.1512 224.534 49.4145 224.672 47.3954C224.694 47.0826 224.834 46.7899 225.064 46.5762C225.293 46.3625 225.595 46.2436 225.909 46.2435H228.984C229.179 46.239 229.372 46.2782 229.55 46.3584C229.727 46.4386 229.884 46.5577 230.009 46.7068C230.163 46.8967 230.256 47.1278 230.277 47.3708C230.299 47.6138 230.248 47.8578 230.13 48.0716C226.62 54.5257 231.75 64.7402 231.802 64.8394L231.835 64.9039L230.387 79.932C230.3 80.8136 229.938 81.6456 229.353 82.3109C228.768 82.9763 227.989 83.4415 227.126 83.6412C224.888 84.1666 221.864 84.362 218.623 84.362Z" fill="#CCCCCC"/>
<path d="M190.297 119.231C186.963 119.231 183.911 118.864 181.486 117.996C178.604 116.965 176.794 115.297 176.106 113.035C175.782 112.074 175.685 111.051 175.823 110.046C175.961 109.041 176.331 108.082 176.903 107.245C181.167 100.86 195.963 99.0592 197.949 98.8463L199.001 90.0819C199.125 89.0704 199.611 88.1379 200.368 87.4557C201.125 86.7734 202.103 86.3873 203.122 86.3682L228.041 85.9792C229.042 85.9551 230.019 86.2912 230.792 86.9265C231.566 87.5618 232.086 88.4539 232.258 89.4405L233.674 97.2291L217.333 105.154L219.804 112.072L219.643 112.18C214.861 115.368 201.107 119.231 190.297 119.231Z" fill="#2F2E41"/>
<path d="M231.41 96.0983C231.41 96.0983 254.23 93.1218 252.742 105.028C251.254 116.934 233.89 125.368 207.598 105.028L210.574 99.0748C210.574 99.0748 225.457 103.044 231.41 100.067V96.0983Z" fill="#2F2E41"/>
<path d="M211.071 100.564C211.071 100.564 211.071 94.6104 206.111 95.1065C201.15 95.6026 192.22 96.0987 192.22 96.0987C192.22 96.0987 189.243 98.0831 193.212 99.0752C197.181 100.067 209.087 105.028 209.087 105.028L211.071 100.564Z" fill="white"/>
<path d="M219.504 99.5713C219.504 99.5713 219.504 93.6182 224.465 94.1143C229.426 94.6104 238.355 95.1065 238.355 95.1065C238.355 95.1065 241.332 97.0909 237.363 98.083C233.394 99.0752 221.488 104.036 221.488 104.036L219.504 99.5713Z" fill="white"/>
<path d="M249.23 98.4436L241.828 72.7824C241.828 72.7824 240.34 63.8528 238.851 55.4192C237.363 46.9857 231.906 47.9779 231.906 47.9779L230.914 48.474V61.8684L231.906 74.2706L241.811 101.506C241.519 102.45 241.502 103.458 241.762 104.412C242.022 105.366 242.548 106.226 243.278 106.892C244.009 107.558 244.914 108.002 245.887 108.173C246.861 108.344 247.863 108.234 248.776 107.857C249.69 107.48 250.477 106.85 251.046 106.042C251.616 105.234 251.943 104.281 251.991 103.293C252.038 102.306 251.804 101.326 251.315 100.466C250.826 99.6074 250.103 98.9051 249.23 98.4416V98.4436Z" fill="white"/>
<path d="M199.161 48.9701C199.161 48.9701 193.704 47.9779 192.216 56.4114C190.727 64.845 189.239 73.7746 189.239 73.7746L181.837 99.4358C180.964 99.8993 180.241 100.602 179.752 101.461C179.263 102.32 179.029 103.3 179.076 104.288C179.124 105.275 179.452 106.228 180.021 107.036C180.59 107.844 181.377 108.474 182.291 108.851C183.204 109.228 184.206 109.338 185.18 109.167C186.154 108.996 187.058 108.552 187.789 107.886C188.519 107.22 189.045 106.36 189.305 105.406C189.565 104.453 189.548 103.445 189.256 102.5L199.161 75.2648L200.153 62.8626V50.5754C200.153 50.2421 200.06 49.9154 199.885 49.6318C199.71 49.3483 199.459 49.1191 199.161 48.9701Z" fill="white"/>
<path d="M203.559 23.057C208.317 25.9618 213.682 27.7294 219.235 28.2223L217.583 26.2424C218.786 26.687 220.052 26.9382 221.333 26.9866C221.975 27.0052 222.613 26.8731 223.194 26.601C223.776 26.3288 224.285 25.9241 224.682 25.4194C225.006 24.8953 225.199 24.3006 225.243 23.686C225.288 23.0714 225.183 22.4551 224.938 21.8897C224.435 20.762 223.651 19.7819 222.662 19.0427C220.908 17.6554 218.838 16.7235 216.637 16.3301C214.436 15.9367 212.171 16.094 210.045 16.7879C208.587 17.2233 207.28 18.0609 206.275 19.2049C205.782 19.7809 205.439 20.4706 205.277 21.2118C205.116 21.9531 205.141 22.7228 205.351 23.4519" fill="#2F2E41"/>
<path d="M216.827 10.3558C212.984 6.45881 208.334 3.45153 203.203 1.54575C199.909 0.32587 196.325 -0.428171 192.882 0.264866C189.439 0.957903 186.185 3.34062 185.222 6.718C184.437 9.48023 185.248 12.4548 186.467 15.0553C187.686 17.6558 189.313 20.0658 190.299 22.7645C191.305 25.517 191.608 28.4772 191.18 31.3763C190.752 34.2755 189.606 37.0218 187.848 39.3659C186.089 41.7101 183.772 43.5777 181.108 44.7994C178.445 46.0211 175.518 46.558 172.594 46.3615C175.977 46.8149 179.095 48.4049 182.402 49.2512C185.709 50.0976 189.612 50.04 192.069 47.6712C194.669 45.165 194.721 41.0896 194.595 37.4805L194.034 21.3849C193.939 18.649 193.858 15.8247 194.844 13.2708C195.831 10.717 198.176 8.48059 200.914 8.50391C202.989 8.52177 204.825 9.77836 206.49 11.0181C208.154 12.2578 209.913 13.5804 211.982 13.7644C214.051 13.9485 216.408 12.4195 216.254 10.3499" fill="#2F2E41"/>
<path d="M413.386 273.589C413.188 280.966 411.952 288.279 409.715 295.311C409.665 295.474 409.61 295.635 409.557 295.798H395.858C395.872 295.652 395.887 295.488 395.902 295.311C396.815 284.81 391.597 221.665 385.301 210.736C385.852 211.622 414.448 240.225 413.386 273.589Z" fill="#E6E6E6"/>
<path d="M412.355 295.311C412.241 295.474 412.122 295.637 412 295.798H401.723C401.801 295.659 401.891 295.496 401.995 295.311C403.693 292.247 408.718 283.086 413.382 273.589C418.393 263.384 422.994 252.791 422.606 248.958C422.726 249.822 426.195 276.181 412.355 295.311Z" fill="#E6E6E6"/>
</svg>
